<?xml version="1.0" standalone="no"?>
<!DOCTYPE svg PUBLIC "-//W3C//DTD SVG 20010904//EN"
 "http://www.w3.org/TR/2001/REC-SVG-20010904/DTD/svg10.dtd">
<svg version="1.0" xmlns="http://www.w3.org/2000/svg"
 width="300.000000pt" height="300.000000pt" viewBox="0 0 300.000000 300.000000"
 preserveAspectRatio="xMidYMid meet">
<metadata>
Created by potrace 1.11, written by Peter Selinger 2001-2013
</metadata>
<g transform="translate(0.000000,300.000000) scale(0.100000,-0.100000)"
fill="#000000" stroke="none">
<path d="M432 2819 c-45 -20 -76 -49 -99 -92 -16 -30 -18 -52 -23 -259 0 -10
-6 -18 -13 -18 -22 0 -87 -61 -101 -94 -12 -29 -12 -59 0 -146 2 -19 7 -54 9
-76 2 -23 6 -53 9 -67 2 -14 8 -51 11 -83 4 -33 9 -68 12 -79 2 -11 6 -42 9
-70 6 -58 9 -79 23 -199 7 -48 14 -102 16 -120 3 -17 9 -56 14 -86 9 -56 7
-270 -3 -370 -4 -30 -9 -93 -11 -140 -9 -149 -24 -377 -31 -470 -10 -118 -4
-135 62 -205 21 -22 35 -34 30 -27 -9 15 -1 15 49 -2 22 -8 48 -12 57 -11 21
4 23 -6 6 -23 -7 -7 -8 -12 -4 -12 5 0 14 8 21 17 13 17 90 30 80 13 -6 -9 25
-23 33 -15 3 3 0 5 -6 5 -21 0 -13 16 8 17 13 1 18 -2 13 -10 -5 -9 -3 -9 8
-1 22 18 65 12 61 -9 -2 -9 2 -17 7 -17 5 0 8 8 6 18 -3 16 3 19 36 19 23 0
36 -4 32 -10 -4 -6 -1 -7 8 -1 21 13 70 14 62 0 -3 -6 0 -6 8 1 17 17 32 17
23 1 -5 -8 0 -7 11 2 17 13 18 13 10 0 -6 -12 -5 -13 6 -2 17 16 32 16 23 0
-6 -10 -4 -11 7 0 19 18 45 16 30 -2 -9 -11 -9 -16 0 -22 7 -4 9 -3 6 3 -4 6
0 16 8 23 8 7 16 10 16 6 1 -3 2 -10 3 -15 0 -5 4 -13 8 -17 4 -3 6 3 3 15 -4
23 20 30 28 9 4 -10 6 -10 6 0 1 6 8 12 17 12 9 0 12 -5 8 -12 -6 -10 -4 -10
7 0 17 16 32 16 23 -1 -6 -9 -5 -9 7 0 20 16 229 16 229 0 0 -9 2 -9 8 0 10
16 321 16 341 -1 12 -8 13 -8 7 2 -5 8 1 12 18 12 14 0 26 -6 26 -12 0 -9 3
-10 8 -2 10 15 82 16 101 1 12 -9 13 -9 7 1 -5 8 1 12 18 12 14 0 26 -6 26
-12 0 -9 3 -9 8 -2 8 12 115 17 108 5 -3 -4 1 -8 9 -8 8 0 12 4 9 9 -3 4 4 8
16 8 14 0 19 -4 14 -12 -6 -10 -5 -10 7 -1 20 16 311 15 302 -1 -4 -7 -1 -6 8
1 19 15 89 14 89 -1 0 -7 3 -6 8 1 10 16 87 12 87 -4 0 -6 3 -15 7 -19 4 -3 6
3 3 15 -3 18 1 21 33 22 20 1 40 1 45 0 4 0 7 4 7 9 0 6 5 10 10 10 23 0 79
47 93 78 15 34 16 116 2 282 -2 30 -7 105 -10 165 -11 180 -13 215 -20 320
-11 169 -13 288 -5 340 5 28 11 75 14 105 4 30 9 66 11 80 5 25 14 97 20 160
5 40 16 127 20 150 1 8 6 42 10 75 4 32 9 68 11 80 2 11 6 46 9 78 3 32 9 76
14 97 21 92 -17 177 -90 202 -28 10 -29 12 -29 81 -1 186 -20 238 -100 285
l-45 27 -1038 1 c-956 0 -1041 -1 -1075 -17z"/>
<path d="M301 234 c0 -11 3 -14 6 -6 3 7 2 16 -1 19 -3 4 -6 -2 -5 -13z"/>
<path d="M345 198 c-11 -12 -14 -18 -7 -14 7 4 21 2 30 -5 14 -11 15 -11 5 0
-6 7 -9 20 -6 27 7 19 2 17 -22 -8z"/>
<path d="M431 191 c-8 -5 -16 -17 -17 -26 -1 -9 1 -14 4 -10 4 4 6 9 4 12 -2
3 5 11 15 19 20 15 16 19 -6 5z"/>
<path d="M500 190 c-9 -6 -10 -10 -3 -10 6 0 15 5 18 10 8 12 4 12 -15 0z"/>
<path d="M628 188 c-7 -17 15 -19 29 -3 4 4 3 5 -4 2 -6 -4 -13 -2 -15 5 -3 8
-6 6 -10 -4z"/>
<path d="M1213 185 c0 -8 4 -12 9 -9 5 3 6 10 3 15 -9 13 -12 11 -12 -6z"/>
<path d="M1453 185 c0 -8 4 -12 9 -9 5 3 6 10 3 15 -9 13 -12 11 -12 -6z"/>
<path d="M1575 191 c-3 -5 -2 -12 3 -15 5 -3 9 1 9 9 0 17 -3 19 -12 6z"/>
<path d="M2173 185 c0 -8 4 -12 9 -9 5 3 6 10 3 15 -9 13 -12 11 -12 -6z"/>
<path d="M2573 185 c0 -8 4 -12 9 -9 5 3 6 10 3 15 -9 13 -12 11 -12 -6z"/>
<path d="M533 178 c1 -7 -4 -12 -11 -10 -8 1 -11 -2 -7 -8 5 -8 11 -8 21 1 7
6 11 15 8 20 -8 13 -14 11 -11 -3z"/>
<path d="M706 178 c3 -4 9 -8 15 -8 5 0 9 4 9 8 0 5 -7 9 -15 9 -8 0 -12 -4
-9 -9z"/>
<path d="M1250 179 c0 -5 5 -7 10 -4 6 3 10 8 10 11 0 2 -4 4 -10 4 -5 0 -10
-5 -10 -11z"/>
<path d="M1490 179 c0 -5 5 -7 10 -4 6 3 10 8 10 11 0 2 -4 4 -10 4 -5 0 -10
-5 -10 -11z"/>
<path d="M2210 179 c0 -5 5 -7 10 -4 6 3 10 8 10 11 0 2 -4 4 -10 4 -5 0 -10
-5 -10 -11z"/>
<path d="M2255 180 c3 -5 8 -10 11 -10 2 0 4 5 4 10 0 6 -5 10 -11 10 -5 0 -7
-4 -4 -10z"/>
<path d="M2295 180 c3 -5 8 -10 11 -10 2 0 4 5 4 10 0 6 -5 10 -11 10 -5 0 -7
-4 -4 -10z"/>
<path d="M1915 171 c-3 -5 -2 -12 3 -15 5 -3 9 1 9 9 0 17 -3 19 -12 6z"/>
</g>
</svg>
